<svg xmlns="http://www.w3.org/2000/svg" viewBox="0 0 186.2 173.24"><defs><style>.cls-1,.cls-2{fill:none;stroke-miterlimit:10;stroke-width:2px;}.cls-1{stroke:#0a74ff;}.cls-2{stroke:#0ab0ff;}</style></defs><title>Asset 5</title><g id="Layer_2" data-name="Layer 2"><g id="Layer_1-2" data-name="Layer 1"><path class="cls-1" d="M35.8,172.06l-10.68.18a10.66,10.66,0,0,1-10.85-8.62l-13.13-77c-1.06-6.25,4-11.92,10.66-11.92H35.61A10.55,10.55,0,0,1,46.41,85v76.78A10.54,10.54,0,0,1,35.8,172.06Z"/><path class="cls-2" d="M58.41,158.14V80.76a20.5,20.5,0,0,1,3.24-11.08l17.44-27.2a27.34,27.34,0,0,0,4.32-14.75v-15c-.07-1.32-.16-5.9,3-9,4.24-4.16,11.07-2.47,13-2,13.65,3.37,18.7,20.9,19,22a37.3,37.3,0,0,1-1,22l-6,20h58c6.8-.4,12.91,3.42,15,9,2.63,7.05-1.49,16.06-10,19,.49.3,6.74,4.16,7,11,.24,6.31-4.69,12.45-12,14,.67.59,5.2,4.68,5,11a14.63,14.63,0,0,1-10,13c1.13,1.65,4.15,6.5,3,12-1.6,7.64-10.68,13.82-22,13l-76.4.88A10.47,10.47,0,0,1,58.41,158.14Z"/></g></g></svg>